<?xml version="1.0" encoding="UTF-8" standalone="no"?>
<!-- Created with Inkscape (http://www.inkscape.org/) -->

<svg
   xmlns:dc="http://purl.org/dc/elements/1.1/"
   xmlns:cc="http://creativecommons.org/ns#"
   xmlns:rdf="http://www.w3.org/1999/02/22-rdf-syntax-ns#"
   xmlns:svg="http://www.w3.org/2000/svg"
   xmlns="http://www.w3.org/2000/svg"
   xmlns:sodipodi="http://sodipodi.sourceforge.net/DTD/sodipodi-0.dtd"
   xmlns:inkscape="http://www.inkscape.org/namespaces/inkscape"
   width="210mm"
   height="297mm"
   viewBox="0 0 744.09448819 1052.3622047"
   id="svg2"
   version="1.1"
   inkscape:version="0.91 r13725"
   sodipodi:docname="traced_bitmap.svg">
  <defs
     id="defs4" />
  <sodipodi:namedview
     id="base"
     pagecolor="#ffffff"
     bordercolor="#666666"
     borderopacity="1.0"
     inkscape:pageopacity="0.0"
     inkscape:pageshadow="2"
     inkscape:zoom="0.5"
     inkscape:cx="26.342297"
     inkscape:cy="280.46418"
     inkscape:document-units="px"
     inkscape:current-layer="layer1"
     showgrid="false"
     inkscape:window-width="1920"
     inkscape:window-height="1017"
     inkscape:window-x="-8"
     inkscape:window-y="-8"
     inkscape:window-maximized="1" />
  <metadata
     id="metadata7">
    <rdf:RDF>
      <cc:Work
         rdf:about="">
        <dc:format>image/svg+xml</dc:format>
        <dc:type
           rdf:resource="http://purl.org/dc/dcmitype/StillImage" />
        <dc:title></dc:title>
      </cc:Work>
    </rdf:RDF>
  </metadata>
  <g
     inkscape:label="Layer 1"
     inkscape:groupmode="layer"
     id="layer1">
    <path
       style="fill:#000000"
       d="m 263.40453,1171.6754 c -0.0826,-0.2152 -0.11271,-18.408 -0.067,-40.4285 0.0934,-44.9132 -0.12234,-40.9385 2.36808,-43.6404 0.70434,-0.7641 1.86213,-1.7301 2.57289,-2.1466 l 1.29225,-0.7573 0,-11.5768 c 0,-11.0311 0.0288,-11.6342 0.6087,-12.7965 0.40425,-0.81 8.15646,-8.6757 23.08188,-23.4197 l 22.47318,-22.2 0.018,-176.87065 0.0182,-176.8708 -34.93044,-34.8542 -34.93047,-34.8543 -23.13927,0 c -16.27998,0 -23.33352,-0.098 -23.79453,-0.3311 -0.36042,-0.1821 -11.7324,-11.3939 -25.27111,-24.9151 l -24.61582,-24.584 -2.07446,1.2122 c -3.72782,2.1784 -8.10322,3.318 -12.73905,3.318 -9.16397,0 -16.99929,-4.4162 -21.86598,-12.3243 -2.16319,-3.5151 -3.35424,-7.386 -3.56037,-11.5714 -0.2967,-6.0242 0.97738,-10.8586 4.11814,-15.626 6.5484,-9.9401 18.68495,-13.9634 30.135,-9.9899 6.45526,2.2402 12.27498,7.9025 14.99024,14.5848 2.05744,5.0633 2.24957,12.0292 0.47763,17.3168 -0.54188,1.617 -1.5213,3.8289 -2.1765,4.9152 l -1.19127,1.9752 23.65842,23.6598 23.65843,23.6598 17.17569,0 c 9.44664,0 17.17572,-0.037 17.17572,-0.082 0,-0.045 -7.82448,-7.9092 -17.3877,-17.475 -12.04704,-12.0503 -17.52969,-17.7351 -17.85,-18.5078 -0.40272,-0.9716 -0.4623,-4.0873 -0.4623,-24.1731 l 0,-23.0576 -20.42738,-20.302 -20.42738,-20.302 -27.06372,0 -27.06371,0 -1.48391,-0.7431 c -1.12558,-0.5637 -5.604564,-4.8657 -18.548584,-17.8157 l -17.06469,-17.0725 -1.83531,0.8588 c -3.41574,1.5983 -6.18336,2.1525 -10.83532,2.1695 -7.70672,0.028 -13.29937,-2.1881 -18.70774,-7.4138 -5.16926,-4.9946 -7.91334,-10.8807 -8.33706,-17.88316 -0.75021,-12.39801 6.9641,-23.50167 19.0948,-27.48426 2.37578,-0.77997 2.89845,-0.83814 7.65,-0.85146 4.43153,-0.0123 5.40638,0.0745 7.43745,0.66321 4.77771,1.3848 8.7816,3.85374 12.36255,7.62324 2.6168,2.75454 3.86097,4.65483 5.40395,8.25372 3.28298,7.65726 2.44621,17.45271 -2.09769,24.55601 l -1.10941,1.7343 15.85051,15.8526 15.850524,15.8526 27.08569,0 c 30.07573,0 28.23721,-0.1223 30.44143,2.0256 l 1.125,1.0962 0,-19.7868 0,-19.7867 -19.12587,-19.12413 -19.12587,-19.12413 -16.49698,0 -16.496974,0 -23.32715,-23.32716 -23.32716,-23.32716 0,-3.94647 0,-3.94647 -1.275,-0.20295 c -6.62627,-1.05468 -13.18298,-5.21562 -17.03032,-10.80753 -4.31744,-6.27519 -5.58635,-15.16455 -3.17601,-22.24971 2.90209,-8.53062 9.35292,-14.64081 17.88133,-16.9371 3.34564,-0.90081 9.2652,-0.96333 12.45,-0.13152 9.33014,2.43693 16.27115,9.31743 18.78984,18.62607 0.91467,3.38046 0.91768,9.19833 0.007,12.6 -2.48859,9.29073 -9.54417,16.17663 -18.93509,18.47973 l -2.71127,0.66492 0,2.87847 0,2.87844 21.375,21.369 21.375,21.36897 16.727024,0.0802 16.72702,0.0802 20.69798,20.70456 20.69798,20.7045 0,24.0021 0,24.0021 2.55,2.5367 2.55,2.5368 0,-28.1927 0,-28.1927 -23.77429,-23.77567 -23.7743,-23.77569 -13.5906,0 c -11.18728,0 -13.73386,-0.0756 -14.40071,-0.42774 -0.44556,-0.23523 -4.013754,-3.64782 -7.929314,-7.58352 -5.38678,-5.41446 -7.16491,-7.38432 -7.30702,-8.0949 -0.15745,-0.7872 -0.36144,-0.97164 -1.26137,-1.14048 -2.09248,-0.39255 -4.95599,-2.05365 -6.98739,-4.05336 -6.23448,-6.13716 -6.25885,-15.88284 -0.0552,-22.08645 3.19546,-3.19545 7.52364,-4.83402 11.93023,-4.51656 4.28572,0.30879 7.41532,1.79466 10.424324,4.94928 2.8715,3.01047 4.18612,6.36705 4.17572,10.66179 -0.0159,6.56268 -3.89877,12.25542 -9.868104,14.46771 -0.78757,0.29187 -1.49315,0.57918 -1.56797,0.63849 -0.0748,0.0593 2.42136,2.66784 5.547044,5.79678 l 5.68307,5.68896 13.94873,0 13.94874,0 25.00952,24.975 c 14.53753,14.51745 25.18526,25.37926 25.42923,25.94036 0.35091,0.8072 0.4197,6.192 0.4197,32.857 l 0,31.8917 2.4,2.3859 2.4,2.386 0,-39.4436 0,-39.44359 -27.25605,-27.25482 -27.25605,-27.25482 -1.01895,0.52716 c -2.56132,1.32513 -7.2621,1.74114 -10.35843,0.91668 -5.18765,-1.38132 -9.46661,-5.63331 -11.03191,-10.96242 -0.99511,-3.38787 -0.45102,-8.38086 1.25626,-11.5284 4.97596,-9.17373 17.45273,-11.03232 24.77256,-3.69024 5.30957,5.32572 6.17171,13.07835 2.15815,19.40691 l -1.04083,1.64118 27.73762,27.75696 27.73763,27.75696 0,43.64514 0,43.6452 7.98096,7.9479 c 5.11161,5.0904 8.18316,8.3793 8.5434,9.1478 0.53439,1.1402 0.5628,2.345 0.56904,24.1504 l 0.007,22.9504 47.25,47.2492 47.25,47.24927 0,-29.10087 0,-29.1009 -13.33311,-13.3306 -13.33314,-13.3306 -1.44186,0.7784 c -2.24676,1.2128 -4.44243,1.7353 -7.29189,1.7353 -4.39698,0 -8.06514,-1.5091 -11.09046,-4.5627 -3.00618,-3.0342 -4.51614,-6.7319 -4.50222,-11.0253 0.0138,-4.235 1.32711,-7.5509 4.21254,-10.6355 6.02598,-6.4417 16.03674,-6.591 22.35408,-0.3332 4.83411,4.7885 5.98977,12.1165 2.86338,18.1567 l -0.85404,1.65 14.20836,14.2573 14.20836,14.2573 0,33.2953 0,33.29537 6.47076,6.4474 c 3.5589,3.546 6.7314,6.9482 7.05,7.5604 0.57045,1.0962 0.57921,3.8483 0.5763,181.5 l -0.003,180.38685 -0.70716,1.5 c -0.5739,1.2173 -4.92714,5.6755 -23.09709,23.6537 l -22.3899,22.1536 0,9.9732 0,9.9732 0.74946,0.3415 c 1.36932,0.6239 3.3732,2.7479 4.09155,4.3367 l 0.70899,1.5681 0,40.2 0,40.2 -11.63307,0.079 c -9.34401,0.063 -11.66259,0 -11.78319,-0.3128 z m 12.36876,-624.50805 c 4.9533,-2.1911 7.25847,-8.0048 5.07222,-12.7924 -1.66518,-3.6466 -4.91541,-5.8134 -8.72472,-5.8165 -2.71497,0 -4.66305,0.7046 -6.50721,2.361 -1.85193,1.6633 -2.8023,3.3073 -3.2496,5.6213 -1.44159,7.4575 6.44481,13.7073 13.40931,10.6266 z m -138.3326,-10.2283 c 2.93058,-0.5279 6.32416,-2.3512 8.5861,-4.6131 9.07018,-9.0702 5.41094,-23.7735 -6.956,-27.9502 -2.48828,-0.8403 -7.31246,-0.7765 -9.95713,0.1317 -2.66032,0.9136 -5.12483,2.5495 -7.14287,4.7414 -2.07542,2.2542 -3.15125,4.2333 -3.90656,7.1865 -0.75057,2.9347 -0.75057,5.114 0,8.0487 0.75531,2.9532 1.83114,4.9323 3.90656,7.1865 4.08978,4.4421 9.61384,6.3234 15.4699,5.2685 z M 59.140686,414.23885 c 7.02244,-1.266 12.4301,-7.7788 12.4301,-14.97058 0,-4.42266 -1.33726,-7.64364 -4.49599,-10.82919 -3.33773,-3.36609 -6.87639,-4.68033 -11.85401,-4.40247 -3.18593,0.17784 -5.1601,0.8781 -7.81358,2.77161 -4.55372,3.24945 -7.01858,8.93985 -6.23336,14.39037 1.24173,8.61926 9.44863,14.57576 17.96684,13.04026 z m 34.62167,-80.25445 c 2.94155,-0.87354 5.16433,-2.77932 6.425904,-5.50947 0.98106,-2.1231 0.87826,-5.93514 -0.217104,-8.0505 -1.76751,-3.4134 -4.56209,-5.23527 -8.30037,-5.41131 -3.128,-0.14727 -5.3009,0.68454 -7.39729,2.83179 -2.12268,2.17419 -2.90698,4.27428 -2.73177,7.31478 0.36308,6.30072 6.29518,10.58439 12.22063,8.82471 z m 38.450184,-0.4908 c 1.94577,-0.89592 3.87626,-2.77065 4.81449,-4.67544 0.57749,-1.1724 0.69376,-1.88613 0.69376,-4.25847 0,-2.5923 -0.0797,-2.99388 -0.88142,-4.44108 -1.72315,-3.11046 -4.43242,-4.86975 -7.84239,-5.0925 -3.08103,-0.2013 -5.05873,0.45054 -7.14091,2.35353 -3.70808,3.38898 -4.43116,8.07828 -1.89733,12.30459 2.51,4.18656 7.83764,5.84277 12.2538,3.80937 z M 57.559826,308.51296 c 5.71977,-1.4898 10.56968,-6.32625 12.05244,-12.01896 0.56805,-2.18088 0.58802,-6.3864 0.0398,-8.38431 -1.41968,-5.17398 -5.14236,-9.41658 -9.99158,-11.38698 -7.16548,-2.91159 -15.63264,-0.35325 -19.99182,6.04053 -3.84889,5.64531 -3.98578,12.84438 -0.35264,18.54645 2.04352,3.20721 6.12238,6.18777 9.83709,7.1883 2.08493,0.56154 6.27958,0.56901 8.40669,0.015 z M 384.47739,1131.6346 c 0.006,-38.6565 0.0308,-40.4783 0.56052,-41.6446 0.30468,-0.6708 0.97671,-1.7011 1.4934,-2.2896 l 0.93948,-1.07 0,-10.0063 0,-10.0063 -14.52003,-14.5541 c -9.68334,-9.706 -14.75487,-15.0038 -15.225,-15.9041 l -0.70497,-1.35 -0.15,-230.35285 -0.15,-230.3529 -21.21051,-21.1971 c -18.19668,-18.1852 -21.31872,-21.4315 -21.97206,-22.8471 l -0.76158,-1.65 -0.003,-9.7504 -0.003,-9.7505 -34.83033,-34.7995 c -24.03981,-24.0186 -35.00478,-35.1713 -35.3934,-35.9996 -0.54009,-1.1509 -0.56382,-2.5911 -0.58101,-35.25 l -0.018,-34.04996 -2.95446,-1.41342 c -8.69901,-4.16169 -14.47245,-12.60792 -15.23403,-22.28658 l -0.18885,-2.4 -14.25582,-14.175 -14.25582,-14.175 -15.59945,0 c -14.9164,0 -15.65286,-0.0258 -16.81917,-0.59193 -0.81415,-0.3951 -7.26346,-6.65463 -19.39573,-18.825 -15.64604,-15.69516 -18.22459,-18.40494 -18.525,-19.46787 -0.25289,-0.89553 -0.34878,-8.35605 -0.34878,-27.15129 l 0,-25.91646 -13.15387,-13.15134 -13.153884,-13.15131 -1.83215,0.92487 c -1.00768,0.50868 -3.01969,1.2843 -4.47112,1.72362 -2.28436,0.69144 -3.20337,0.80268 -6.83898,0.82773 -3.22912,0.0222 -4.71855,-0.10371 -6.44326,-0.54507 -5.12763,-1.31214 -8.79059,-3.3033 -12.37293,-6.72585 -5.2881,-5.05221 -8.18978,-11.38464 -8.47724,-18.5001 -0.54206,-13.41739 8.5355,-24.94177 21.7563,-27.62065 3.36954,-0.68275 9.38905,-0.4615 12.58348,0.46252 10.547674,3.05102 18.377414,12.35056 19.455874,23.10813 0.55881,5.57411 -0.42726,10.73165 -2.97993,15.58625 l -1.49136,2.83624 14.09671,14.11377 c 9.65779,9.66945 14.24246,14.46495 14.55954,15.22911 0.40505,0.97614 0.46282,4.38768 0.46282,27.33351 l 0,26.21817 15.74899,15.71649 15.74899,15.71646 15.97601,0.15 c 15.08063,0.1416 16.02644,0.18219 16.87601,0.72432 0.495,0.31587 6.72138,6.37293 13.83642,13.46013 l 12.93642,12.88581 0.99303,-1.46013 c 2.65392,-3.90222 5.67456,-6.65892 9.64074,-8.79825 2.71053,-1.46202 6.09669,-2.65413 8.26191,-2.90862 l 1.58148,-0.18588 0,-7.68417 0,-7.68417 -35.2692,-35.24952 c -19.39809,-19.38723 -35.46308,-35.61408 -35.70001,-36.05961 -0.3385,-0.63657 -0.43079,-2.29158 -0.43079,-7.725 l 0,-6.91491 -0.675,-0.006 c -1.32495,-0.0123 -4.74185,-1.45302 -6.61258,-2.78796 -5.12475,-3.65694 -7.49836,-9.93636 -6.06075,-16.0338 1.26769,-5.37669 5.42279,-9.88242 10.58329,-11.47634 2.40622,-0.7432 6.46936,-0.79729 8.78559,-0.11696 5.33208,1.56618 9.3189,5.55634 10.91226,10.92139 0.6954,2.34156 0.64317,6.26709 -0.11613,8.72541 -1.27158,4.11681 -4.35891,7.58625 -8.47435,9.52308 l -2.34055,1.10151 -9e-4,6.14952 -9e-4,6.14955 35.625,35.62542 35.625,35.62542 0.15,8.92503 0.15,8.92506 0.75,0.0904 c 0.4125,0.0497 1.7625,0.34581 3,0.65796 10.10868,2.54982 17.93484,11.04846 19.80357,21.50526 0.53373,2.9865 0.23712,9.22167 -0.56658,11.91039 -1.87062,6.25806 -5.76279,11.55894 -11.11668,15.1401 -3.06876,2.05263 -5.8494,3.22746 -9.32031,3.9378 l -2.55,0.52188 -0.0764,31.61612 -0.0764,31.6162 29.32581,29.3269 c 16.1292,16.1299 29.42802,29.327 29.55294,29.327 0.12495,0 0.19269,-12.3863 0.15057,-27.525 l -0.0766,-27.525 -1.65,0.15 c -15.21735,1.3834 -28.57569,-6.1042 -34.96167,-19.5966 -3.67128,-7.7566 -4.16517,-17.48871 -1.30011,-25.61754 1.1415,-3.23868 1.70178,-4.36497 3.71577,-7.46961 5.10369,-7.86759 13.55079,-13.41327 22.84368,-14.9973 4.21704,-0.71883 10.30209,-0.45621 14.35233,0.61941 17.51586,4.65165 28.54947,22.26645 24.90606,39.76164 -1.35162,6.4904 -4.84974,13.0939 -9.13044,17.2358 l -1.22562,1.1859 0,47.2654 0,47.2654 13.12626,13.1238 c 7.21944,7.218 13.22694,13.1237 13.35,13.1237 0.12306,0 0.22374,-41.5274 0.22374,-92.2831 l 0,-92.28299 -32.20899,-32.35263 c -18.53697,-18.61959 -32.41743,-32.7918 -32.7,-33.3873 -0.43647,-0.91974 -0.49101,-2.89599 -0.49101,-17.7888 l 0,-16.7541 -30.375,-30.37578 -30.375,-30.37578 -0.0858,-10.79979 c -0.0472,-5.9399 -0.17155,-10.79979 -0.27637,-10.79979 -0.10482,0 -0.44625,0.23139 -0.75876,0.51421 -0.54699,0.49501 -0.89769,0.18362 -9.39861,-8.34496 l -8.83044,-8.85916 0,-12.73083 0,-12.73082 -21.55677,-21.55523 -21.5568,-21.555221 -1.31873,1.00661 c -7.53125,5.748731 -18.54457,3.279501 -23.05504,-5.16904 -3.71673,-6.96177 -1.51024,-15.93276 4.97804,-20.23944 5.34434,-3.54737 12.27425,-3.54737 17.6186,0 3.11447,2.06727 5.73246,5.96145 6.50297,9.67297 0.47233,2.2752 0.22244,6.13483 -0.53285,8.23021 l -0.60892,1.68931 22.61475,22.615061 22.61475,22.61506 0,12.74813 0,12.74814 6.75,6.745 6.75,6.745 -0.007,-62.5475 -0.007,-62.547501 -2.10495,-0.67319 c -2.71398,-0.86795 -4.83612,-2.24206 -6.82296,-4.41797 -2.64924,-2.90129 -4.01739,-6.34727 -4.04166,-10.17984 -0.0559,-8.81233 6.87483,-15.78928 15.67083,-15.77544 4.29144,0.007 7.75017,1.44024 10.84662,4.49545 6.26781,6.18431 6.31791,15.76998 0.11535,22.06987 -1.76655,1.79426 -5.52468,4.03112 -6.77262,4.03112 -0.29811,0 -0.61854,0.12385 -0.71208,0.27522 -0.0936,0.15137 -0.17007,34.00082 -0.17004,75.221001 l 3e-5,74.94577 3.30234,3.30234 3.30234,3.30234 0,-34.53584 c 0,-18.99471 0.0863,-34.99146 0.19167,-35.54833 0.15537,-0.82064 1.86036,-2.69114 8.99769,-9.87118 l 8.80602,-8.85868 -1.34997,-2.69132 c -3.25251,-6.48423 -2.10729,-13.36678 3.04845,-18.320671 8.78139,-8.43756 23.53779,-3.83328 26.05401,8.129351 0.5538,2.63289 0.55362,3.66938 0,6.3 -1.19733,5.67767 -5.28579,10.12518 -10.90332,11.8609 -3.32298,1.02673 -8.11479,0.63419 -11.14803,-0.91326 l -1.09062,-0.55639 -8.30238,8.30635 -8.30238,8.30635 0,37.19883 0,37.19884 20.92581,20.92419 c 11.50917,11.5083 21.02733,20.92419 21.15141,20.92419 0.12411,0 0.19125,-13.57479 0.14922,-30.16623 l -0.0764,-30.16623 -2.22024,-0.74763 c -6.85503,-2.30838 -12.1968,-7.85039 -14.42898,-14.96991 -1.36872,-4.36555 -1.10064,-10.4985 0.65571,-15 2.28249,-5.85003 7.93866,-11.11918 14.19351,-13.22232 3.22701,-1.08506 8.27853,-1.34143 11.73303,-0.59546 6.87957,1.48556 13.12689,6.49577 15.99954,12.83124 1.54596,3.40955 1.94337,5.40334 1.93077,9.68654 -0.0105,3.59005 -0.0885,4.1265 -0.98016,6.75 -1.60899,4.73383 -4.79643,9.09465 -8.52021,11.65668 -1.54383,1.06218 -5.53401,3.04332 -6.12951,3.04332 -0.30975,0 -0.38346,9.55986 -0.38346,49.72605 l 0,49.72602 16.2,16.19793 16.2,16.19793 0,-27.19059 0,-27.19056 -1.029,-0.19305 c -3.14214,-0.58947 -7.70937,-3.98883 -9.52755,-7.09131 -2.89779,-4.94475 -2.89779,-11.22009 0,-16.16484 1.15632,-1.9731 3.84402,-4.52421 5.93487,-5.63322 10.5621,-5.60229 23.05422,1.83609 23.03421,13.71564 -0.008,4.44378 -1.51296,8.05701 -4.64175,11.14035 -1.76787,1.74222 -5.14758,3.67803 -7.04178,4.03338 l -1.029,0.19305 0,29.30661 c 0,22.61973 -0.0833,29.38992 -0.36507,29.67168 -0.28674,0.28674 0.37275,1.12014 3.07425,3.885 9.01734,9.22872 12.45042,12.66993 12.64008,12.66993 0.11358,0 0.25023,-2.73375 0.30363,-6.075 0.091,-5.69031 0.14172,-6.1605 0.80148,-7.425 0.47757,-0.91533 6.73215,-7.38828 19.425,-20.10321 l 18.72063,-18.75318 0,-23.39775 0,-23.39775 -18.03051,-17.99904 c -12.19485,-12.17358 -18.21267,-18.38745 -18.5934,-19.19907 -0.53823,-1.14735 -0.56319,-2.46987 -0.56949,-30.15057 l -0.008,-28.95057 -29.56824,-29.54943 c -16.26252,-16.25219 -29.72877,-29.819431 -29.925,-30.149431 -0.2664,-0.44803 -0.39474,-8.07369 -0.50676,-30.10645 l -0.15,-29.50644 -1.90722,-0.71694 c -5.39496,-2.028 -9.7026,-6.54405 -11.64891,-12.21249 -0.75231,-2.19098 -0.84285,-2.86461 -0.83448,-6.20768 0.007,-2.75816 0.15474,-4.2260805 0.5589,-5.5500005 1.86213,-6.09987 6.47034,-10.97257 12.48801,-13.20481 2.95521,-1.09622 8.36442,-1.38391 11.3937,-0.60598 4.29105,1.10196 8.44956,3.80918 10.97691,7.14603 6.28515,8.29825 5.32683,19.6629705 -2.24955,26.6775405 -2.33445,2.16133 -4.22454,3.27649 -7.49979,4.42489 l -2.27757,0.79857 -0.0766,27.48213 -0.0766,27.48214 25.52502,25.449741 c 14.03877,13.99736 25.58196,25.506 25.65156,25.57475 0.0696,0.0688 0.12654,-13.09934 0.12654,-29.26242 l 0,-29.387431 -2.17206,-0.50975 c -1.19463,-0.28036 -3.31122,-1.05636 -4.70352,-1.72443 -7.63809,-3.66501 -12.84,-10.10403 -14.93127,-18.48213 -0.76953,-3.0829 -0.68616,-9.40013 0.16569,-12.55884 2.03052,-7.52912 6.8334,-13.61451 13.59396,-17.22398 12.96228,-6.92058 29.14917,-2.07594 36.38796,10.89072 0.56289,1.00829 1.4586,3.11576 1.99044,4.68326 0.87162,2.56886 0.97968,3.27911 1.09539,7.2 0.14559,4.93405 -0.18372,7.05235 -1.71285,11.01752 -2.75214,7.13648 -9.25575,13.34561 -16.28874,15.5511 l -1.725,0.54095 0,63.171541 0,63.17153 12.74487,12.74223 12.74487,12.74223 0.0801,-41.99355 0.0801,-41.99355 0.68682,-1.5 c 0.56244,-1.22834 5.08566,-5.90141 24.975,-25.80248 l 24.28818,-24.302491 0,-22.27251 c 0,-21.30411 -0.0236,-22.27252 -0.54372,-22.27252 -1.05318,0 -5.84256,-1.79681 -8.36238,-3.13729 -7.73748,-4.11611 -13.66737,-11.17417 -16.39371,-19.51271 -6.65445,-20.3525705 6.74328,-41.55364 28.13988,-44.52963 16.36974,-2.27683 32.54205,8.3016995 37.16406,24.3095095 3.71319,12.8603405 -0.49695,27.0913305 -10.49358,35.4700305 -2.81403,2.3586 -6.78366,4.76828 -9.59511,5.82452 l -2.19744,0.82557 -0.084,25.5 -0.084,25.500001 -0.68682,1.5 c -0.56244,1.22833 -5.08527,5.90103 -24.97263,25.8001 l -24.28578,24.3001 -0.0774,73.79989 -0.0774,73.79991 -0.80442,1.5 c -0.58248,1.08618 -5.98296,6.67263 -19.575,20.2491 l -18.77058,18.7491 0,62.32586 c 0,34.2793 0.10203,62.3259 0.22671,62.3259 0.12468,0 4.64718,-4.422 10.05,-9.8266 l 9.82329,-9.8267 0,-14.4828 c 0,-13.5307 -0.0345,-14.4934 -0.525,-14.6462 -5.57604,-1.7367 -9.33921,-5.0753 -11.1768,-9.9156 -0.82488,-2.1728 -1.11144,-6.1827 -0.61323,-8.58084 1.22712,-5.90685 6.16659,-10.80738 12.16503,-12.06909 2.63289,-0.5538 3.66939,-0.55362 6.3,0 4.68006,0.98697 8.63874,4.00842 10.73085,8.1903 1.39116,2.78073 1.83159,4.97157 1.63971,8.15643 -0.3435,5.702 -3.68364,10.6009 -8.91864,13.0807 -0.90645,0.4294 -2.0877,0.8521 -2.625,0.9393 l -0.97692,0.1585 0,15.4257 c 0,12.8239 -0.0726,15.5622 -0.43044,16.2357 -0.23676,0.4455 -6.10926,6.4795 -13.05,13.4088 l -12.61956,12.5986 0,6.0764 c 0,3.342 0.10161,6.0763 0.22578,6.0763 0.1242,0 9.77742,-9.5523 21.45162,-21.2274 l 21.22581,-21.2274 -0.0766,-27.1059 -0.0766,-27.10596 -1.83366,-0.66393 c -3.5991,-1.30317 -6.02274,-3.18216 -8.05758,-6.24684 -4.02405,-6.06069 -3.14742,-14.34504 2.07015,-19.56258 2.25585,-2.25588 4.78599,-3.57984 8.18361,-4.28241 5.02944,-1.03998 10.12551,0.57429 13.88748,4.39908 3.1035,3.15534 4.48989,6.5451 4.49643,10.99389 0.0102,6.82515 -4.13952,12.48969 -10.79643,14.73807 l -1.95,0.65862 -0.0765,28.43496 -0.0765,28.435 -24.29847,24.3106 -24.29847,24.3107 0,59.9208 c 0,32.9564 0.0338,59.9192 0.075,59.9173 0.0412,0 6.99474,-6.8904 15.45222,-15.308 l 15.37722,-15.3046 -0.0772,-19.0702 -0.0772,-19.0702 -2.10717,-0.6681 c -9.49509,-3.0103 -16.57473,-11.0139 -18.46557,-20.8755 -0.61719,-3.2188 -0.43785,-8.0998 0.41955,-11.4209 2.27088,-8.7961 8.49831,-15.6786 17.07735,-18.8738 7.00896,-2.6104 16.18848,-1.8059 22.55556,1.9769 l 1.77975,1.0574 35.64525,-35.6443 35.64528,-35.6443 0,-1.8511 0,-1.851 -2.025,-0.6664 c -4.55601,-1.4994 -7.88376,-3.6211 -11.35251,-7.2382 -4.33746,-4.5229 -6.66333,-9.5291 -7.29165,-15.6943 -0.97296,-9.54675 3.10353,-18.74472 10.89717,-24.58776 1.93527,-1.45089 5.20251,-3.09414 7.82199,-3.93405 l 2.1,-0.67335 -0.10713,-20.95242 -0.10713,-20.95242 -23.14287,-23.17566 -23.14287,-23.17566 -0.0801,-33.26178 -0.0801,-33.26178 -1.35873,-0.38043 c -1.7793,-0.49815 -4.45314,-2.11689 -6.09186,-3.68799 -8.42766,-8.07987 -5.24892,-22.20159 5.85759,-26.02281 5.57844,-1.91926 11.74599,-0.43344 15.9693,3.84717 3.23439,3.27825 4.53708,6.44328 4.53033,11.00697 -0.0105,7.06791 -4.24128,12.74118 -11.09643,14.87949 l -1.65,0.51468 -0.0792,9.6339 c -0.0435,5.29863 0.024,9.62862 0.15,9.62217 0.12606,-0.007 10.86312,-10.6377 23.86017,-23.625 l 23.631,-23.61327 0.004,-16.63771 0.004,-16.63771 -7.70232,-7.7066 -7.70232,-7.70659 -1.67592,1.07208 c -2.64867,1.69434 -5.16183,2.45282 -8.15172,2.4602 -4.76835,0.0118 -7.84659,-1.25565 -11.26572,-4.63854 -8.73747,-8.64487 -4.47738,-23.2929 7.60269,-26.14124 6.41709,-1.51307 13.60323,1.62082 16.94673,7.3905 2.22228,3.83491 2.64921,9.26372 1.03755,13.19422 l -0.79899,1.94861 8.84484,8.86294 8.84487,8.86294 0,18.88453 0,18.88454 -26.85756,26.86371 -26.85753,26.86374 0.0825,5.0163 0.0826,5.0163 29.92974,-29.93139 29.92971,-29.93142 -0.003,-36.71087 -0.003,-36.71088 -1.88325,-0.63383 c -3.9204,-1.31948 -7.32192,-4.35582 -9.11205,-8.13383 -5.283,-11.14959 4.12167,-23.790341 16.40394,-22.048411 8.67546,1.23041 14.81835,9.83732 13.06044,18.299281 -1.18698,5.71364 -5.00973,10.10549 -10.36476,11.90774 l -1.95693,0.65861 -0.15,37.96592 -0.15,37.9659 -32.925,32.92599 -32.925,32.92599 0,8.70033 0,8.70033 20.1,20.09832 20.1,20.09832 0,-9.15081 0,-9.15081 -10.21968,-10.19835 c -5.6208,-5.6091 -10.4133,-10.56291 -10.65,-11.00844 -0.35256,-0.66372 -0.43032,-2.92368 -0.43032,-12.50547 0,-6.43245 0.12294,-12.00792 0.27321,-12.38991 0.15027,-0.38199 12.02745,-12.43497 26.39376,-26.78439 l 26.12055,-26.08989 0.0812,-26.58912 c 0.0656,-21.45817 0.15747,-26.68097 0.47631,-27.06505 0.3285,-0.39574 0.31965,-0.59304 -0.0526,-1.171 -1.77204,-2.75137 -2.28831,-8.23287 -1.12506,-11.94508 2.90841,-9.28138 13.45254,-13.59918 22.28262,-9.12465 4.07895,2.06697 7.42338,6.88704 8.10048,11.67465 1.74531,12.3406 -11.41131,21.7328 -22.51107,16.07012 l -1.23945,-0.63231 0,25.28934 c 0,21.14011 -0.0686,25.38643 -0.41814,25.8811 -0.22998,0.32547 -12.10998,12.26418 -26.4,26.53044 l -25.98186,25.93872 0,10.21353 0,10.21356 7.5,7.4955 7.5,7.4955 0,-7.28238 c 0,-5.86875 0.0896,-7.49889 0.46128,-8.39775 0.3261,-0.78852 10.17252,-10.83045 33.6,-34.2672 l 33.13839,-33.15069 0,-26.03281 c 0,-22.75565 0.0581,-26.17321 0.46191,-27.14817 0.31392,-0.758 4.3014,-4.96142 12.44541,-13.11939 l 11.9835,-12.00402 -0.36327,-1.19598 c -0.21687,-0.71395 -0.36405,-3.07008 -0.36516,-5.84597 -0.003,-3.92448 0.10296,-5.01456 0.67011,-6.98655 2.94807,-10.25033 10.98273,-17.645421 21.2808,-19.586781 3.13086,-0.59022 8.51655,-0.44765 11.3367,0.3001 8.05584,2.135991 14.14779,7.100281 17.69952,14.423231 1.97748,4.07711 2.53419,6.23092 2.75283,10.65 0.6291,12.71543 -7.33536,23.64553 -19.93251,27.35459 -1.9752,0.58157 -3.01065,0.68304 -6.96984,0.68304 -3.95919,0 -4.99464,-0.10147 -6.96984,-0.68304 -4.60899,-1.35705 -8.19621,-3.37199 -11.5764,-6.50242 l -1.89624,-1.75613 -9.42876,9.42519 -9.42876,9.4252 0,26.18643 c 0,22.90293 -0.058,26.32626 -0.46227,27.30177 -0.32631,0.78741 -10.20927,10.8669 -33.60969,34.27821 l -33.14745,33.16287 0.45912,42.88713 c 0.25251,23.58795 0.45939,43.46514 0.45969,44.17158 0,0.76905 0.15108,1.32807 0.3756,1.39323 5.99304,1.73919 9.49338,3.76722 13.32033,7.71753 3.41967,3.52992 5.62254,7.59858 6.92139,12.78363 0.75675,3.02109 0.66279,9.3639 -0.18552,12.52115 -1.82076,6.7765 -6.35355,12.8688 -12.23115,16.4393 -2.02314,1.2289 -5.70705,2.7625 -7.37505,3.0701 l -1.125,0.2074 0,3.4568 c 0,1.9013 -0.15621,4.0125 -0.34713,4.6916 -0.30288,1.0775 -5.06952,5.9636 -37.4013,38.339 l -37.05414,37.1041 1.08447,2.3724 c 3.70008,8.0945 3.32382,17.22 -1.02588,24.8788 -1.60929,2.8337 -5.6046,7.1114 -8.3406,8.9303 -2.30091,1.5296 -5.12601,2.8591 -7.6101,3.5813 l -1.70532,0.4957 -0.007,20.9166 c -0.006,19.8238 -0.036,20.9793 -0.56952,22.1166 -0.38286,0.8161 -7.19505,7.8221 -21.29343,21.8992 l -20.73045,20.69922 0,197.852 0,197.85195 14.69091,14.6886 c 11.94525,11.9433 14.8188,14.9709 15.375,16.1988 0.67383,1.4876 0.68544,1.7079 0.77385,14.6712 l 0.0898,13.161 0.9021,1.1225 c 1.85277,2.3055 1.76838,0.2127 1.76838,43.8532 l 0,39.8523 -11.7,0 -11.7,0 0.007,-40.425 z m 31.6434,-596.49335 c 3.71388,-1.3757 6.8745,-4.1624 8.60196,-7.5845 5.1168,-10.1363 -2.29689,-22.0971 -13.69647,-22.0971 -8.39994,0 -15.17322,6.7547 -15.14817,15.1066 0.009,3.0261 0.35952,4.5937 1.58571,7.0934 1.82652,3.7236 5.85675,6.8838 10.18863,7.9892 2.21685,0.5656 6.21822,0.3258 8.46834,-0.5076 z M 310.40484,419.35515 c 5.76594,-1.0867 11.175,-6.2777 12.71922,-12.2064 1.39011,-5.337 -0.29877,-11.58845 -4.20327,-15.55859 -6.47034,-6.57906 -16.48071,-6.87783 -23.09622,-0.68934 -2.289,2.14125 -3.56508,4.053 -4.50957,6.75594 -3.17226,9.07849 2.16075,18.99409 11.57727,21.52559 1.93362,0.5199 5.26458,0.5965 7.51257,0.1728 z m 197.3865,-7.6741 c 4.91742,-1.4444 9.0447,-5.3654 10.47675,-9.9532 1.80675,-5.7882 0.47241,-11.28456 -3.78471,-15.5901 -4.58658,-4.63869 -11.57049,-5.82207 -17.36259,-2.94192 -3.88308,1.93086 -6.43677,4.82766 -7.85763,8.91333 -0.9435,2.71299 -0.98841,6.44082 -0.11172,9.27216 1.51284,4.88583 5.73429,9.00843 10.55073,10.30363 2.18955,0.5888 6.07776,0.5869 8.08917,0 z m -106.17213,-0.8332 c 0.93411,-0.4436 2.19837,-1.36 2.80944,-2.0364 4.45458,-4.9307 3.06453,-12.58311 -2.80971,-15.46782 -1.45488,-0.71448 -2.06343,-0.83352 -4.24815,-0.831 -1.96194,0.003 -2.8698,0.15012 -3.93672,0.64119 -2.01474,0.92733 -3.71346,2.59974 -4.75239,4.67886 -0.79368,1.58829 -0.91089,2.1414 -0.91089,4.29867 0,2.2094 0.10497,2.6774 0.975,4.3477 2.49039,4.7809 8.03982,6.6642 12.87342,4.3688 z m 22.51704,-26.84724 c 3.49698,-1.69284 5.74536,-5.08968 5.75946,-8.70126 0.0117,-2.97666 -0.77844,-4.94118 -2.80017,-6.96291 -7.64556,-7.64556 -19.96716,0.68571 -15.79215,10.6779 1.04607,2.50356 3.30525,4.46469 6.2532,5.42823 1.75767,0.57447 4.91859,0.36216 6.57966,-0.44196 z M 254.35983,358.01296 c 5.48271,-1.42806 9.7455,-5.62125 11.17518,-10.99269 0.62232,-2.3382 0.5517,-5.8221 -0.16509,-8.14272 -0.83907,-2.71665 -1.94154,-4.5609 -3.88617,-6.501 -6.123,-6.10872 -15.80919,-5.98404 -21.71793,0.27954 -5.84202,6.19284 -5.85132,14.80449 -0.0228,20.98317 1.04064,1.10316 2.60886,2.39667 3.48486,2.87448 3.37254,1.83948 7.62609,2.41233 11.1318,1.49922 z m 87.99696,-92.68497 c 2.12418,-0.96723 3.84411,-2.6124 4.83006,-4.62015 0.71331,-1.45254 0.83394,-2.06697 0.83394,-4.24815 0,-2.18118 -0.12063,-2.79561 -0.83394,-4.24815 -2.27358,-4.62975 -8.01672,-6.76899 -12.57276,-4.68315 -2.25105,1.03056 -3.95655,2.64105 -4.95936,4.68315 -0.71331,1.45254 -0.83394,2.06697 -0.83394,4.24815 0,2.18118 0.12063,2.79561 0.83394,4.24815 2.31309,4.71027 7.97856,6.77097 12.70206,4.62015 z m 114.72504,-55.54542 c 5.60787,-1.57347 8.64171,-7.92393 6.30705,-13.20186 -0.78279,-1.76964 -2.85555,-3.92739 -4.65606,-4.84698 -2.19912,-1.1232 -5.38551,-1.26909 -7.80273,-0.35727 -3.92703,1.48137 -6.31116,5.2233 -6.10587,9.58323 0.12651,2.68656 0.90369,4.48653 2.72247,6.30531 2.67963,2.67963 5.91402,3.53361 9.53514,2.51757 z m -275.58099,-0.94641 c 1.99427,-0.70938 4.43793,-2.99247 5.47773,-5.1177 0.68829,-1.40682 0.83433,-2.10195 0.83433,-3.97137 0,-1.95138 -0.13572,-2.54172 -0.97722,-4.25106 -1.7496,-3.55392 -4.82758,-5.47056 -8.76489,-5.45784 -3.02428,0.01 -4.88913,0.8382 -6.97814,3.0999 -2.09367,2.26674 -2.74301,4.08531 -2.55894,7.16676 0.24624,4.1223 2.59587,7.24488 6.50176,8.64066 1.57198,0.56175 4.7289,0.50835 6.46537,-0.10935 z M 88.042866,187.59775 c 9.41197,-2.21855 14.461034,-12.55372 10.3999,-21.28806 -3.66663,-7.8859 -13.10257,-11.13367 -20.89022,-7.19025 -5.63371,2.85274 -9.03673,9.42693 -8.10888,15.66533 1.32014,8.87604 9.9831,14.84395 18.5992,12.81298 z M 300.5871,182.94653 c 2.33367,-0.87314 4.71702,-3.12154 5.93805,-5.60181 0.86022,-1.74736 0.97035,-2.25934 0.98223,-4.56684 0.0123,-2.41514 -0.0667,-2.76098 -1.11996,-4.89231 -1.28091,-2.592 -2.76903,-4.07219 -5.31663,-5.28826 -1.42266,-0.6791 -2.0427,-0.78762 -4.5,-0.78762 -2.45919,0 -3.08346,0.10945 -4.55253,0.79812 -6.32211,2.96369 -8.45157,10.61391 -4.55403,16.36057 2.87922,4.24519 8.14371,5.84109 13.12287,3.97815 z m 246.63369,-33.60847 c 1.89597,-0.90254 3.72066,-2.71571 4.66572,-4.63619 0.61509,-1.24994 0.73383,-1.93049 0.73152,-4.19218 -0.003,-2.34291 -0.10818,-2.89838 -0.79974,-4.2 -1.03281,-1.94386 -3.01113,-3.84489 -4.8975,-4.70616 -2.27523,-1.03882 -5.71794,-0.97968 -7.99245,0.1373 -1.97772,0.97123 -3.94482,2.98346 -4.85481,4.96616 -0.92286,2.01082 -0.90354,5.63373 0.0411,7.7027 1.13625,2.48863 3.64842,4.69683 6.35616,5.58708 1.42809,0.46953 5.1411,0.10719 6.75,-0.65871 z m 71.68752,-10.03773 c 5.42571,-1.41321 9.83178,-5.88597 11.10054,-11.26856 2.61798,-11.1064 -7.30374,-21.02811 -18.41013,-18.41015 -6.79488,1.60167 -11.72793,7.84291 -11.72793,14.83807 0,6.83985 4.77849,13.03603 11.43369,14.82584 2.14191,0.57602 5.42463,0.58241 7.60383,0.0148 z m -135.22038,-3.45545 c 3.36921,-1.65118 5.26767,-4.78343 5.25357,-8.66769 -0.01,-2.7587 -0.68511,-4.49333 -2.53116,-6.50363 -2.87175,-3.12732 -7.44555,-4.04671 -11.18955,-2.24922 -2.22708,1.06921 -3.77661,2.65532 -4.81437,4.92798 -0.69816,1.52891 -0.78249,2.04398 -0.68763,4.2 0.12615,2.86699 0.83838,4.60272 2.65809,6.4778 2.99172,3.08279 7.31001,3.77562 11.31105,1.81476 z M 277.55412,117.73302 c 2.12982,-0.97507 3.84756,-2.61901 4.83273,-4.62517 0.71448,-1.4549 0.83352,-2.06344 0.831,-4.24816 -0.003,-1.96193 -0.15012,-2.8698 -0.64119,-3.93672 -0.92733,-2.01475 -2.59974,-3.71345 -4.67886,-4.7524 -1.58829,-0.793681 -2.1414,-0.910881 -4.2987,-0.910881 -2.20701,0 -2.68041,0.10589 -4.35912,0.975001 -6.81354,3.52757 -7.16661,13.11243 -0.62424,16.94651 2.92851,1.71622 5.98308,1.9048 8.93838,0.55182 z m 246.03042,-3.51474 c 2.40513,-0.88849 4.86363,-3.36268 5.77176,-5.80859 1.73199,-4.66477 -0.46509,-9.896491 -5.08551,-12.109651 -2.3499,-1.1256 -5.73858,-1.12832 -8.1,-0.007 -1.98795,0.94438 -3.68163,2.58959 -4.75212,4.616161 -0.68667,1.29992 -0.79236,1.86013 -0.79236,4.2 0,2.34602 0.10449,2.89665 0.79698,4.2 2.42502,4.56411 7.52334,6.62192 12.16125,4.90859 z M 161.97078,93.747299 c 0.90548,-0.44302 2.14642,-1.35901 2.75762,-2.03554 4.45483,-4.93097 3.06495,-12.58334 -2.80945,-15.46814 -1.45254,-0.71331 -2.06698,-0.83393 -4.24816,-0.83393 -2.22759,0 -2.77029,0.11162 -4.29233,0.88282 -2.05383,1.04066 -3.59022,2.64121 -4.58389,4.77531 -1.0119,2.17325 -1.01652,5.7006 -0.0103,7.86149 1.83565,3.94214 5.09107,5.92722 9.38835,5.72482 1.57641,-0.0743 2.59208,-0.31675 3.79817,-0.90683 z m 206.09667,-25.40715 c 2.49606,-0.82334 5.59398,-2.9679 7.03527,-4.87023 2.42631,-3.20246 3.10176,-5.0049 3.29076,-8.78142 0.23778,-4.75209 -0.98178,-8.08433 -4.17645,-11.41123 -3.01206,-3.13676 -6.57501,-4.61758 -11.11014,-4.61758 -8.01222,0 -14.32368,5.89182 -15.10428,14.1 -0.68613,7.21503 4.83912,14.55019 12.09699,16.05959 2.49342,0.51855 5.48937,0.33839 7.96785,-0.47913 z M 237.47514,44.057469 c 1.78671,-0.91151 3.36249,-2.44847 4.36422,-4.25672 0.80217,-1.44799 0.88131,-1.84734 0.87999,-4.44106 0,-2.51229 -0.097,-3.03157 -0.80841,-4.38228 -3.01581,-5.72649 -10.46148,-7.10492 -15.32268,-2.83672 -0.60783,0.53368 -1.54668,1.86719 -2.08632,2.96336 -0.84558,1.71761 -0.98088,2.30482 -0.97917,4.24933 0.003,2.71251 0.92106,4.97934 2.76555,6.82382 2.89821,2.89822 7.63191,3.69385 11.18682,1.88027 z m 220.19565,-9.79437 c 5.42058,-1.50014 10.13376,-6.26444 11.54064,-11.66588 0.52368,-2.01056 0.59337,-6.24225 0.13554,-8.22919 -0.84381,-3.6619 -3.51075,-7.4816905 -6.77973,-9.7104405 -2.91813,-1.98954 -5.01678,-2.67216 -8.70735,-2.83218 -2.55093,-0.11062 -3.42561,-0.0227 -5.25,0.52744 -2.97381,0.89681 -5.12298,2.17853 -7.27854,4.34077 -3.19317,3.20304 -4.70322,6.9642505 -4.70385,11.7160705 0,10.945 10.41732,18.79415 21.04329,15.85341 z m -150.15,-7.36129 c 3.00978,-0.74517 6.24486,-3.17817 8.10051,-6.09212 5.37609,-8.44209 0.34854,-19.4802205 -9.65394,-21.19546048 -8.91369,-1.52853002 -17.40177,6.77574998 -15.97584,15.62991048 1.38756,8.61613 9.09936,13.74478 17.52927,11.65767 z M 446.57739,1131.6381 c 0.006,-38.6599 0.0308,-40.4818 0.56052,-41.6481 0.69015,-1.5194 2.15469,-3.2095 3.50385,-4.0433 l 1.02903,-0.636 0,-10.1012 0,-10.1013 -23.57964,-23.5493 c -13.65423,-13.6366 -23.75661,-23.9556 -24,-24.5146 -0.35895,-0.8243 -0.42036,-27.25015 -0.42036,-180.83985 0,-164.1463 0.0419,-179.9585 0.47913,-180.8347 0.26349,-0.528 16.46349,-16.9589 36,-36.513 l 35.52087,-35.553 0,-14.4869 c 0,-12.6714 0.0601,-14.6073 0.47937,-15.4471 0.26367,-0.528 20.37903,-20.8735 44.70078,-45.2122 l 44.22138,-44.2522 -0.0757,-57.5815 -0.0758,-57.58161 -2.55,-0.37017 c -8.72382,-1.26639 -16.34859,-6.88353 -20.24772,-14.91636 -3.4437,-7.09455 -3.56049,-15.79296 -0.30726,-22.88259 3.57153,-7.78317 10.72533,-13.51122 19.06536,-15.26562 1.17087,-0.2463 2.66001,-0.44781 3.30924,-0.44781 l 1.18038,0 0,-23.0625 c 0,-12.68439 0.0842,-23.51814 0.1872,-24.075 0.15657,-0.84666 4.21011,-5.04216 24.74952,-25.61622 l 24.56229,-24.60369 -0.29949,-1.0443 c -0.42834,-1.49349 -0.3633,-5.58201 0.11751,-7.38777 1.79049,-6.72439 8.04129,-11.51052 15.03297,-11.51052 4.29384,0 7.90641,1.48186 10.97037,4.5 5.41545,5.33445 6.2526,13.47957 2.03463,19.79601 -5.2503,7.86243 -16.41405,9.23193 -23.29851,2.85813 l -1.74579,-1.61628 -23.15535,23.15679 -23.15535,23.15679 0,22.81833 0,22.81833 2.4084,0.69591 c 12.10269,3.49713 20.08611,14.47128 19.65345,27.01599 -0.32472,9.4152 -6.00897,18.48813 -14.27823,22.79028 l -2.38362,1.24008 0,39.43482 c 0,21.68918 0.10365,39.43478 0.23037,39.43478 0.12669,0 1.61169,-1.386 3.3,-3.0801 l 3.06963,-3.0801 0,-31.13477 c 0,-26.45709 0.0646,-31.25649 0.43005,-31.9449 0.23655,-0.44553 3.67905,-4.04904 7.65,-8.00775 l 7.21995,-7.19766 0,-18.90408 0,-18.90411 -9.63003,-9.59826 c -5.30022,-5.2827 -9.81888,-10.03227 -10.05,-10.5636 -0.49365,-1.13475 -0.60279,-10.66473 -0.1362,-11.89197 0.15609,-0.41052 2.45109,-2.93238 5.1,-5.60412 2.64894,-2.67174 4.81623,-4.93452 4.81623,-5.02839 0,-0.0939 -0.28242,-0.75414 -0.62763,-1.46721 -1.55256,-3.20718 -1.90302,-7.40286 -0.91575,-10.96329 1.45446,-5.2452 5.84316,-9.47406 11.28141,-10.87053 9.66714,-2.48235 19.36197,5.09892 19.36197,15.14088 0,4.25415 -1.5225,7.8663 -4.62702,10.97769 -5.24208,5.25366 -12.87642,6.16062 -19.18923,2.27967 l -1.16625,-0.71697 -4.15875,4.1508 -4.15875,4.15077 0,3.75579 0,3.75576 9.61971,9.59826 c 5.29083,5.27901 9.81333,9.96279 10.05,10.40832 0.6423,1.2093 0.64254,41.56992 2.4e-4,42.77982 -0.23655,0.44553 -3.67905,4.04904 -7.65,8.00775 l -7.21995,7.19766 0,27.30102 0,27.30102 12.9,-12.89736 12.9,-12.89739 0,-49.40676 c 0,-33.64101 0.10011,-49.67628 0.31374,-50.25132 0.17451,-0.46974 8.77737,-9.31467 19.38588,-19.93128 l 19.07214,-19.08678 -0.76164,-1.91322 c -6.29634,-15.8163 5.01216,-33.50169 22.16421,-34.66269 12.27789,-0.83106 23.41059,7.2846 26.52237,19.33458 3.08685,11.95341 -3.50814,25.02735 -15.0192,29.77413 -4.81668,1.98624 -11.19951,2.47182 -16.0275,1.21929 -3.11202,-0.80733 -7.30983,-2.8938 -9.6765,-4.80957 -1.03209,-0.83544 -1.97865,-1.51899 -2.10348,-1.51899 -0.12483,0 -8.08959,7.86687 -17.69943,17.48196 l -17.47248,17.48193 0.0759,46.64307 0.076,46.64304 8.7,0.0784 8.7,0.0784 13.41936,-13.42836 13.41939,-13.42836 -0.78465,-2.4 c -1.13259,-3.46419 -1.30947,-8.10246 -0.44121,-11.56869 1.96398,-7.84026 7.81881,-13.74501 15.63711,-15.7704 2.61591,-0.67767 7.62102,-0.67878 10.2,-0.003 5.34966,1.4034 9.80682,4.60824 12.75858,9.17391 1.58769,2.45577 2.12748,3.73359 2.85873,6.7674 2.22846,9.24534 -2.31615,19.21197 -10.79103,23.66538 -7.20756,3.78747 -16.31544,3.0744 -22.66812,-1.77471 l -1.44414,-1.10232 -13.98201,13.94952 c -7.69011,7.67223 -14.27688,14.09859 -14.6373,14.28081 -0.44373,0.22437 -4.31781,0.33132 -12.00075,0.33132 l -11.34546,0 -22.43112,22.43264 -22.43112,22.4326 0.0819,5.6924 0.0819,5.6924 9.138,0.086 9.13797,0.086 13.73808,-13.7358 13.73808,-13.7358 16.75299,-0.082 16.75299,-0.082 -0.26115,-1.5678 c -0.16521,-0.9918 -0.1371,-2.4759 0.0766,-4.0401 1.16787,-8.5501 9.34254,-14.642 17.82648,-13.2846 8.3685,1.3389 14.35263,9.4427 13.07124,17.7015 -1.35564,8.7372 -9.7905,14.8118 -18.18918,13.0994 -3.21444,-0.6554 -5.87766,-2.0251 -8.05554,-4.143 l -1.80048,-1.7509 -16.81179,0 -16.81179,0 -13.57713,13.575 -13.57713,13.575 -10.6491,0.086 -10.6491,0.086 0,3.7391 0,3.7391 10.72689,0 10.72686,0 8.99814,-9.0198 c 4.94895,-4.9609 9.36267,-9.2134 9.8082,-9.45 0.62196,-0.3303 2.13954,-0.4302 6.53442,-0.4302 4.30998,0 5.75652,-0.093 5.85459,-0.375 1.51323,-4.3559 3.09798,-6.7248 5.8581,-8.7567 6.1062,-4.4951 14.40552,-4.038 19.94991,1.0987 3.55212,3.2909 5.1288,7.2767 4.87359,12.32 -0.34611,6.8395 -4.854,12.4158 -11.4807,14.2016 -2.26233,0.6097 -6.32604,0.5228 -8.61504,-0.1842 -2.48286,-0.7669 -5.10141,-2.471 -6.95382,-4.5254 -1.60455,-1.7795 -3.31941,-5.034 -3.63414,-6.8968 l -0.19974,-1.1822 -4.69689,0 -4.69692,0 -9.52815,9.525 -9.52815,9.525 -12.22359,0.15 -12.22356,0.15 -16.64376,16.725 -16.64376,16.725 5.39505,0 5.39505,0 13.04871,-13.0696 c 7.17678,-7.1882 13.41327,-13.2632 13.8588,-13.5 0.6663,-0.354 3.0228,-0.4304 13.275,-0.4304 l 12.46491,0 0,-1.1684 c 0,-1.7729 1.05534,-4.8179 2.35788,-6.8033 2.03091,-3.0955 4.48989,-5.0746 7.99212,-6.4324 2.58063,-1.0004 7.26807,-1.0275 10.08258,-0.058 11.09769,3.8222 14.3172,17.6068 6.03636,25.8449 -2.24553,2.2339 -4.79367,3.6722 -7.50177,4.2345 -2.58144,0.5359 -7.04778,0.2292 -9.06717,-0.6227 -3.64185,-1.5362 -6.67074,-4.3289 -8.37234,-7.7195 l -0.63984,-1.275 -12.06768,0 -12.06768,0 -13.4271,13.425 -13.4271,13.425 -9.67413,0.083 -9.67413,0.083 -24.81183,24.8028 -24.81183,24.8028 -0.0882,14.5638 c -0.0699,11.5492 -0.17229,14.7191 -0.49449,15.3139 -0.22347,0.4125 -6.70293,7.0612 -14.3988,14.775 l -13.99248,14.025 19.05012,0 19.05009,0 12.82371,-12.8263 12.82368,-12.8263 0,-6.9604 0,-6.9604 -1.275,0.4629 c -1.80369,0.6548 -5.82645,0.8663 -8.08743,0.4252 -2.24901,-0.4389 -5.42628,-2.039 -7.26861,-3.6607 -3.99399,-3.5157 -5.94942,-9.4249 -4.84914,-14.654 1.55532,-7.3916 7.86951,-12.6 15.27492,-12.6 12.56214,0 20.05227,14.1891 12.88338,24.4059 l -1.02162,1.456 0.0321,10.3701 0.0321,10.37 -14.0241,14.0451 c -7.71324,7.7248 -14.45454,14.2493 -14.98068,14.4989 -0.82785,0.3929 -4.01976,0.454 -23.71989,0.454 l -22.76334,0 -1.86633,1.883 c -1.02648,1.0357 -1.86633,1.9807 -1.86633,2.1 0,0.1193 11.91807,0.217 26.4846,0.217 l 26.48457,0 23.91543,-23.9439 c 13.15347,-13.1692 23.9154,-24.089 23.9154,-24.2663 0,-0.1774 -0.40662,-1.1914 -0.9036,-2.2534 -3.54126,-7.5675 -0.3213,-16.5155 7.35219,-20.4312 6.88761,-3.5146 15.70098,-1.0379 20.00988,5.6231 3.25944,5.0387 3.25311,11.8579 -0.0156,16.8433 -2.73402,4.1698 -6.72162,6.5715 -11.89287,7.1629 -2.295,0.2625 -5.64912,-0.4104 -8.13681,-1.6323 -1.01025,-0.4962 -1.9218,-0.9022 -2.02563,-0.9022 -0.10386,0 -11.29227,11.1419 -24.86319,24.7599 l -24.67437,24.75992 -30.90123,-0.01 -30.90123,-0.01 -13.57377,13.5762 -13.57377,13.5762 0,176.0962 0,176.09625 23.68497,23.7025 c 13.23507,13.2449 23.82396,24.0752 24,24.5471 0.20007,0.5363 0.31503,5.0803 0.31503,12.4505 l 0,11.606 1.36554,0.7244 c 1.69692,0.9002 4.1547,3.5479 4.68552,5.0476 0.32433,0.9162 0.39894,8.646 0.39894,41.327 l 0,40.2 -11.625,0.079 -11.625,0.078 0.007,-40.4285 z M 566.6235,579.33505 c 1.96368,-0.8706 3.98757,-2.8402 4.96614,-4.8329 0.70116,-1.4278 0.82995,-2.0678 0.82353,-4.0925 -0.01,-3.0752 -0.80433,-4.9541 -2.95569,-6.9887 -4.86966,-4.6055 -12.5409,-3.2217 -15.50241,2.7966 -0.61488,1.2495 -0.73392,1.9312 -0.73212,4.1921 0.003,2.2632 0.11742,2.917 0.71466,4.0408 1.48035,2.7858 2.80269,3.9923 5.6205,5.1283 1.88166,0.7586 5.05134,0.6493 7.06539,-0.2437 z m -46.66938,-7.402 c 5.80587,-2.6581 7.58979,-9.6691 3.75411,-14.7542 -4.3878,-5.8169 -13.56756,-4.7334 -16.65282,1.9656 -0.89169,1.9361 -0.88686,5.9045 0.01,7.852 2.28045,4.9545 8.03544,7.1587 12.8892,4.9366 z m 105.78774,-86.8075 c 3.41229,-1.5095 5.6412,-4.731 5.85741,-8.4659 0.17598,-3.0402 -0.60807,-5.1401 -2.7312,-7.3147 -2.12034,-2.1718 -4.28085,-2.9923 -7.41867,-2.8173 -3.81552,0.2127 -6.73029,2.1664 -8.33319,5.5854 -0.65502,1.3972 -0.79476,2.1212 -0.79161,4.1017 0.003,2.0583 0.13023,2.6548 0.88071,4.1381 2.38332,4.7105 7.91568,6.8167 12.53655,4.7727 z m 23.33979,-28.8959 c 3.40047,-1.8124 5.22087,-4.8396 5.21373,-8.67 -0.005,-2.7174 -0.67689,-4.4107 -2.5608,-6.4545 -3.57561,-3.8791 -9.5946,-4.2206 -13.51803,-0.7671 -2.01876,1.777 -3.02499,3.8764 -3.18531,6.6458 -0.15654,2.7042 0.19362,4.0269 1.63386,6.1712 2.74896,4.0929 8.04549,5.4044 12.41655,3.0746 z m 25.70289,-28.2114 c 2.40258,-0.8875 4.86237,-3.3619 5.77443,-5.8086 2.83539,-7.6062 -4.82298,-15.2629 -12.43818,-12.4355 -2.4459,0.9082 -4.92009,3.3667 -5.8086,5.7718 -2.86518,7.7559 4.71642,15.3375 12.47235,12.4723 z m 18.47829,-67.85069 c 9.32061,-4.60647 9.32997,-17.70462 0.0159,-22.30785 -1.90533,-0.94167 -2.62074,-1.12923 -4.7289,-1.2399 -6.72537,-0.35298 -12.02193,3.9051 -13.1661,10.58472 -0.79965,4.66842 1.6815,10.00296 5.76579,12.39651 2.53368,1.48485 4.12137,1.8819 7.11174,1.77861 2.45838,-0.0849 2.97339,-0.20973 5.00148,-1.21209 z M 571.26075,336.22555 c 3.67515,-1.13514 7.04883,-4.04805 8.8206,-7.61586 4.01661,-8.08824 0.42684,-17.54067 -8.01039,-21.09258 -6.51444,-2.74245 -14.5989,-0.10449 -18.53448,6.04779 -3.05367,4.77369 -3.14472,11.09037 -0.23145,16.06146 1.07493,1.83426 3.56511,4.26111 5.50455,5.3646 1.55784,0.88635 3.9507,1.69863 5.81121,1.97265 1.49913,0.2208 4.68033,-0.13281 6.63996,-0.73806 z m 34.46004,-74.58489 c 2.11482,-0.67353 4.95567,-3.53544 5.68161,-5.7237 1.16928,-3.52464 0.42297,-7.16619 -2.01672,-9.84045 -3.89592,-4.27047 -10.10175,-4.35003 -14.20206,-0.1821 -3.61776,3.67737 -3.5328,9.84531 0.18681,13.56492 2.71113,2.71113 6.30723,3.46899 10.35036,2.18133 z m 75.43641,-7.42356 c 5.89473,-1.56873 10.65147,-6.37917 12.15822,-12.29544 0.53559,-2.103 0.58812,-5.19114 0.12627,-7.42221 -1.2447,-6.0129 -6.45837,-11.34537 -12.5709,-12.85728 -6.70314,-1.65804 -14.42193,1.50789 -17.97672,7.37325 -6.00987,9.91626 -1.14177,22.14906 10.02672,25.19562 1.99401,0.54393 6.20361,0.54702 8.23641,0.006 z m -47.17719,-52.38765 c 3.66852,-1.75968 5.65665,-5.16009 5.41983,-9.26976 -0.41466,-7.19572 -8.00235,-11.36446 -14.37345,-7.89687 -1.7727,0.96482 -2.96019,2.24523 -4.06491,4.38294 -0.67371,1.30371 -0.81087,1.96416 -0.82443,3.96933 -0.0144,2.13774 0.095,2.63163 0.98388,4.43793 1.4418,2.92998 3.59367,4.50357 7.39986,5.41131 1.22319,0.29172 3.65439,-0.16917 5.45922,-1.03488 z"
       id="path4147"
       inkscape:connector-curvature="0" />
  </g>
</svg>
